<?xml version="1.0" encoding="UTF-8"?>
<svg version="1.1" xmlns="http://www.w3.org/2000/svg" width="175" height="194">
<path d="M0 0 C1.07161377 0.21889893 2.14322754 0.43779785 3.24731445 0.66333008 C5.48940727 1.12236055 7.73102167 1.58373362 9.97216797 2.04736328 C13.35625641 2.74612971 16.74232704 3.43451176 20.12890625 4.12109375 C22.27353363 4.55942577 24.41806839 4.99821121 26.5625 5.4375 C28.05740967 5.74059082 28.05740967 5.74059082 29.58251953 6.04980469 C34.29827722 7.02592674 38.84324694 8.08201022 43.375 9.75 C43.2097168 11.57958984 43.2097168 11.57958984 42.375 13.75 C40.06176758 15.18212891 40.06176758 15.18212891 37.01953125 16.4765625 C35.92189453 16.9509375 34.82425781 17.4253125 33.69335938 17.9140625 C32.53642578 18.39617188 31.37949219 18.87828125 30.1875 19.375 C28.48110352 20.10976563 28.48110352 20.10976563 26.74023438 20.859375 C21.66742753 23.02708931 16.62784173 25.05591333 11.375 26.75 C11.96935571 31.1976506 13.11964099 34.97573727 14.8125 39.125 C17.67861977 46.41455316 19.86269442 52.78432444 19.375 60.75 C19.045 61.08 18.715 61.41 18.375 61.75 C19.365 61.88535156 20.355 62.02070312 21.375 62.16015625 C30.81877108 63.62711499 36.78047894 65.60144976 42.703125 73.52734375 C47.64189255 81.75282632 46.87196887 92.61848991 45.375 101.75 C45.045 102.41 44.715 103.07 44.375 103.75 C39.65011859 103.46364355 37.38411788 101.25991463 34.12109375 98.125 C30.49355799 95.26841703 26.47307191 95.58856685 22 95.5625 C20.34871094 95.54123047 20.34871094 95.54123047 18.6640625 95.51953125 C13.08071298 95.91076358 9.07896321 97.87535582 4.375 100.75 C3.715 100.75 3.055 100.75 2.375 100.75 C1.88 102.235 1.88 102.235 1.375 103.75 C-3.08214286 107.75 -3.08214286 107.75 -5.625 107.75 C-5.893125 108.3275 -6.16125 108.905 -6.4375 109.5 C-7.65429189 111.80550043 -8.92833879 113.77056192 -10.625 115.75 C-11.285 115.75 -11.945 115.75 -12.625 115.75 C-12.99625 116.801875 -12.99625 116.801875 -13.375 117.875 C-14.79680238 121.14514548 -16.49746288 123.891122 -18.625 126.75 C-19.285 126.75 -19.945 126.75 -20.625 126.75 C-20.72683594 127.27078125 -20.82867187 127.7915625 -20.93359375 128.328125 C-21.85571226 131.55814463 -23.25936583 134.46141666 -24.6875 137.5 C-25.50927734 139.25570312 -25.50927734 139.25570312 -26.34765625 141.046875 C-26.76917969 141.93890625 -27.19070312 142.8309375 -27.625 143.75 C-24.655 141.77 -21.685 139.79 -18.625 137.75 C-17.965 138.08 -17.305 138.41 -16.625 138.75 C-17.68642198 142.58744869 -18.82230117 146.36238256 -20.125 150.125 C-22.62578945 157.57684734 -23.88095658 164.93754412 -24.625 172.75 C-29.52672331 171.39294196 -33.26640299 169.18236065 -37.3125 166.1875 C-38.22660645 165.5214978 -38.22660645 165.5214978 -39.15917969 164.84204102 C-48.44812806 158.0137171 -57.14859803 150.55681186 -65.625 142.75 C-66.20894531 142.24339844 -66.79289062 141.73679688 -67.39453125 141.21484375 C-68.8125 139.9375 -68.8125 139.9375 -70.625 137.75 C-70.47265625 135.73828125 -70.47265625 135.73828125 -69.625 133.75 C-67.953125 132.625 -67.953125 132.625 -65.875 131.75 C-62.30750775 130.22496514 -59.59813008 128.24493433 -56.625 125.75 C-57.58019531 125.54246094 -58.53539062 125.33492187 -59.51953125 125.12109375 C-71.91308242 122.24470882 -82.05354122 117.45599856 -89.625 106.75 C-91.18746317 104.04276184 -91.625 102.94908761 -91.625 99.75 C-95.09 99.255 -95.09 99.255 -98.625 98.75 C-98.625 98.09 -98.625 97.43 -98.625 96.75 C-100.275 96.42 -101.925 96.09 -103.625 95.75 C-103.45484375 95.15316406 -103.2846875 94.55632812 -103.109375 93.94140625 C-101.44117929 87.96962055 -99.92607532 81.97084525 -98.5 75.9375 C-98.32952148 75.22086182 -98.15904297 74.50422363 -97.98339844 73.76586914 C-96.0294305 65.9862335 -96.0294305 65.9862335 -96.25 58.0625 C-96.37375 56.969375 -96.4975 55.87625 -96.625 54.75 C-95.25 53.1875 -95.25 53.1875 -93.625 51.75 C-93.23752366 49.75978062 -92.90003676 47.75884691 -92.625 45.75 C-94.50445312 45.56824219 -94.50445312 45.56824219 -96.421875 45.3828125 C-98.07295865 45.21395167 -99.72399809 45.04465817 -101.375 44.875 C-102.2 44.79636719 -103.025 44.71773437 -103.875 44.63671875 C-104.67421875 44.55292969 -105.4734375 44.46914063 -106.296875 44.3828125 C-107.0300293 44.30949707 -107.76318359 44.23618164 -108.51855469 44.16064453 C-110.8587569 43.70442987 -112.58752507 42.98238858 -114.625 41.75 C-115.5625 39.8125 -115.5625 39.8125 -115.625 37.75 C-113.52535867 35.18070755 -111.34269735 33.9877703 -108.31640625 32.70703125 C-107.48689453 32.35576172 -106.65738281 32.00449219 -105.80273438 31.64257812 C-104.93970703 31.28615234 -104.07667969 30.92972656 -103.1875 30.5625 C-102.32833984 30.19447266 -101.46917969 29.82644531 -100.58398438 29.44726562 C-96.57862799 27.77241141 -94.04945606 26.75 -89.625 26.75 C-89.33625 25.945625 -89.0475 25.14125 -88.75 24.3125 C-87.625 21.75 -87.625 21.75 -85.625 20.75 C-84.42875 20.70875 -83.2325 20.6675 -82 20.625 C-75.03060644 19.93030161 -68.86996389 16.50251842 -62.58251953 13.62255859 C-59.86469666 12.41109701 -57.09890655 11.35517831 -54.3125 10.3125 C-47.12911855 7.60637007 -40.07380826 4.61306294 -33.0078125 1.6171875 C-31.88294434 1.14877441 -31.88294434 1.14877441 -30.73535156 0.67089844 C-28.84477113 -0.15409802 -27.00693134 -1.09755977 -25.1796875 -2.0546875 C-17.16267561 -4.75051787 -8.06544311 -1.67408077 0 0 Z M-87.625 45.75 C-87.955 48.06 -88.285 50.37 -88.625 52.75 C-87.635 53.245 -87.635 53.245 -86.625 53.75 C-85.875 55.5625 -85.875 55.5625 -85.625 57.75 C-85.955 58.36875 -86.285 58.9875 -86.625 59.625 C-88.02732004 62.60493009 -87.39067725 64.61768397 -86.625 67.75 C-85.48798403 69.11532549 -85.48798403 69.11532549 -82.46484375 68.84765625 C-81.17707031 68.83605469 -79.88929687 68.82445313 -78.5625 68.8125 C-77.27214844 68.80347656 -75.98179688 68.79445313 -74.65234375 68.78515625 C-73.65332031 68.77355469 -72.65429688 68.76195313 -71.625 68.75 C-73.38942652 62.64333234 -75.28115801 56.66055806 -77.625 50.75 C-77.851875 49.945625 -78.07875 49.14125 -78.3125 48.3125 C-80.03886531 46.2573032 -81.12926132 46.34544007 -83.75 46 C-85.02875 45.9175 -86.3075 45.835 -87.625 45.75 Z M-11.625 60.75 C-11.10798106 66.49353473 -11.10798106 66.49353473 -8.625 69.625 C-5.06864712 72.14408329 -2.98582329 72.49001601 1.2890625 72.234375 C3.63096117 71.86262848 3.63096117 71.86262848 5.8125 69.625 C7.70588526 66.34122238 7.70588526 66.34122238 9.375 60.75 C2.445 60.75 -4.485 60.75 -11.625 60.75 Z M-83.625 88.75 C-83.625 91.72 -83.625 94.69 -83.625 97.75 C-84.615 97.42 -85.605 97.09 -86.625 96.75 C-86.955 97.74 -87.285 98.73 -87.625 99.75 C-84.56244039 99.7770491 -81.5001214 99.79686298 -78.4375 99.8125 C-77.14102539 99.82506836 -77.14102539 99.82506836 -75.81835938 99.83789062 C-71.62213231 99.85396812 -67.71563114 99.82559038 -63.625 98.75 C-64.16125 98.481875 -64.6975 98.21375 -65.25 97.9375 C-71.375 94.875 -77.5 91.8125 -83.625 88.75 Z " fill="#F7C904" transform="translate(120.625,10.25)"/>
<path d="M0 0 C1.07161377 0.21889893 2.14322754 0.43779785 3.24731445 0.66333008 C5.48940727 1.12236055 7.73102167 1.58373362 9.97216797 2.04736328 C13.35625641 2.74612971 16.74232704 3.43451176 20.12890625 4.12109375 C22.27353363 4.55942577 24.41806839 4.99821121 26.5625 5.4375 C27.55910645 5.63956055 28.55571289 5.84162109 29.58251953 6.04980469 C34.29827722 7.02592674 38.84324694 8.08201022 43.375 9.75 C43.2097168 11.57958984 43.2097168 11.57958984 42.375 13.75 C40.06176758 15.18212891 40.06176758 15.18212891 37.01953125 16.4765625 C35.92189453 16.9509375 34.82425781 17.4253125 33.69335938 17.9140625 C32.53642578 18.39617188 31.37949219 18.87828125 30.1875 19.375 C29.04990234 19.86484375 27.91230469 20.3546875 26.74023438 20.859375 C21.66742753 23.02708931 16.62784173 25.05591333 11.375 26.75 C12.031379 31.23525648 13.07574209 35.41914029 14.375 39.75 C13.59898437 39.5334375 12.82296875 39.316875 12.0234375 39.09375 C-10.9918278 33.16141431 -37.08784344 39.12830405 -57.5625 50.875 C-65.1351494 55.17381608 -65.1351494 55.17381608 -70.5 61.6875 C-70.66260001 64.37040022 -70.625 67.06217702 -70.625 69.75 C-74.915 69.75 -79.205 69.75 -83.625 69.75 C-83.625 69.42 -83.625 69.09 -83.625 68.75 C-79.665 68.75 -75.705 68.75 -71.625 68.75 C-72.5820262 66.02036868 -73.54057346 63.29128758 -74.5 60.5625 C-74.76941406 59.79357422 -75.03882813 59.02464844 -75.31640625 58.23242188 C-76.67557819 54.37038452 -78.06214212 50.53575768 -79.625 46.75 C-83.585 46.255 -83.585 46.255 -87.625 45.75 C-87.955 47.07 -88.285 48.39 -88.625 49.75 C-89.10839356 32.85808055 -89.10839356 32.85808055 -86.625 25.75 C-83.71282285 23.13650768 -82.50740952 22.75 -78.625 22.75 C-78.625 22.09 -78.625 21.43 -78.625 20.75 C-73.83190663 18.16172958 -69.08992515 16.15388198 -63.9375 14.375 C-58.16469485 12.36706777 -52.72089754 9.99154309 -47.20703125 7.3671875 C-42.12271682 5.07176092 -36.930388 3.08784016 -31.71582031 1.10986328 C-30.98331055 0.83126465 -30.25080078 0.55266602 -29.49609375 0.265625 C-28.84568115 0.02102539 -28.19526855 -0.22357422 -27.52514648 -0.47558594 C-25.57508853 -1.2231217 -25.57508853 -1.2231217 -23.66577148 -2.359375 C-17.08772856 -5.23013712 -6.74597922 -1.40021 0 0 Z " fill="#24242C" transform="translate(120.625,10.25)"/>
<path d="M0 0 C1.07161377 0.21889893 2.14322754 0.43779785 3.24731445 0.66333008 C5.48940727 1.12236055 7.73102167 1.58373362 9.97216797 2.04736328 C13.35625641 2.74612971 16.74232704 3.43451176 20.12890625 4.12109375 C22.27353363 4.55942577 24.41806839 4.99821121 26.5625 5.4375 C27.55910645 5.63956055 28.55571289 5.84162109 29.58251953 6.04980469 C34.29827722 7.02592674 38.84324694 8.08201022 43.375 9.75 C43.09326172 11.62768555 43.09326172 11.62768555 42.375 13.75 C40.84033203 14.86254883 40.84033203 14.86254883 38.8828125 15.70703125 C38.17769531 16.01447266 37.47257812 16.32191406 36.74609375 16.63867188 C36.00488281 16.94353516 35.26367188 17.24839844 34.5 17.5625 C33.39978516 18.04879883 33.39978516 18.04879883 32.27734375 18.54492188 C26.77742347 20.88414116 26.77742347 20.88414116 23.375 19.75 C24.78828129 18.93162558 26.20578346 18.12053781 27.625 17.3125 C28.41390625 16.86003906 29.2028125 16.40757813 30.015625 15.94140625 C32.375 14.75 32.375 14.75 34.609375 14.21484375 C35.19203125 14.06144531 35.7746875 13.90804688 36.375 13.75 C36.705 13.09 37.035 12.43 37.375 11.75 C36.27929688 11.77578125 35.18359375 11.8015625 34.0546875 11.828125 C28.81132421 11.8235195 23.69164531 11.18945747 18.5 10.5 C17.49638428 10.36940186 16.49276855 10.23880371 15.45874023 10.10424805 C8.30820661 9.12760362 1.3046463 7.80303557 -5.68896484 6.02050781 C-12.45009373 4.34855837 -18.58209361 4.35003172 -25.4375 5.625 C-26.35144531 5.78742187 -27.26539063 5.94984375 -28.20703125 6.1171875 C-30.85974066 6.67107536 -30.85974066 6.67107536 -33.625 8.75 C-34.615 8.75 -35.605 8.75 -36.625 8.75 C-36.955 9.74 -37.285 10.73 -37.625 11.75 C-40.09834238 12.79777631 -42.44527892 13.65161461 -45 14.4375 C-45.68578125 14.66244141 -46.3715625 14.88738281 -47.078125 15.11914062 C-50.03265356 16.06470473 -52.5053551 16.75 -55.625 16.75 C-55.625 17.41 -55.625 18.07 -55.625 18.75 C-77.23239583 27.47551414 -77.23239583 27.47551414 -86.625 30.75 C-86.76953125 28.36328125 -86.76953125 28.36328125 -86.625 25.75 C-83.76396577 23.50756777 -82.28423696 22.75 -78.625 22.75 C-78.625 22.09 -78.625 21.43 -78.625 20.75 C-73.83190663 18.16172958 -69.08992515 16.15388198 -63.9375 14.375 C-58.16469485 12.36706777 -52.72089754 9.99154309 -47.20703125 7.3671875 C-42.12271682 5.07176092 -36.930388 3.08784016 -31.71582031 1.10986328 C-30.98331055 0.83126465 -30.25080078 0.55266602 -29.49609375 0.265625 C-28.84568115 0.02102539 -28.19526855 -0.22357422 -27.52514648 -0.47558594 C-25.57508853 -1.2231217 -25.57508853 -1.2231217 -23.66577148 -2.359375 C-17.08772856 -5.23013712 -6.74597922 -1.40021 0 0 Z " fill="#323848" transform="translate(120.625,10.25)"/>
<path d="M0 0 C0.6875 3.125 0.6875 3.125 1 6 C0.36723145 5.97905273 -0.26553711 5.95810547 -0.91748047 5.93652344 C-23.55576096 5.28959844 -41.71157426 8.6713469 -62 19 C-62.71027344 19.15984375 -63.42054687 19.3196875 -64.15234375 19.484375 C-64.76207031 19.65453125 -65.37179688 19.8246875 -66 20 C-66.33 20.66 -66.66 21.32 -67 22 C-67.99 22 -68.98 22 -70 22 C-70.33 21.67 -70.66 21.34 -71 21 C-71 21.66 -71 22.32 -71 23 C-73.75 23.6875 -73.75 23.6875 -77 24 C-79.375 22.5625 -79.375 22.5625 -81 21 C-80.38125 20.7525 -79.7625 20.505 -79.125 20.25 C-76.87652198 19.19750102 -76.87652198 19.19750102 -76.125 17.125 C-74.41987739 13.90421285 -72.17449703 12.68061607 -69 11 C-66.125 11.25 -66.125 11.25 -64 12 C-64 10.02 -64 8.04 -64 6 C-45.97112591 -2.69249286 -18.22473359 -12.14982239 0 0 Z M-81 23 C-79 24 -79 24 -79 24 Z " fill="#E2AF10" transform="translate(134,51)"/>
<path d="M0 0 C4.63157895 1.34072022 4.63157895 1.34072022 6.1875 4.125 C6.5896875 5.548125 6.5896875 5.548125 7 7 C7.18433594 7.61359375 7.36867188 8.2271875 7.55859375 8.859375 C8.81013884 13.31314924 9.2853097 17.33994158 9 22 C8.505 22.495 8.505 22.495 8 23 C11.96 23.66 15.92 24.32 20 25 C20 25.33 20 25.66 20 26 C13.07 25.67 6.14 25.34 -1 25 C-1 26.65 -1 28.3 -1 30 C-1.99 30 -2.98 30 -4 30 C-3.34 27.69 -2.68 25.38 -2 23 C-8.6 22.67 -15.2 22.34 -22 22 C-22.33 23.32 -22.66 24.64 -23 26 C-23 25.01 -23 24.02 -23 23 C-23.66 23 -24.32 23 -25 23 C-25 22.34 -25 21.68 -25 21 C-14.44 21 -3.88 21 7 21 C5.68325158 14.79339818 5.68325158 14.79339818 2 11 C-12.95821142 6.01392953 -32.30426888 13.08941213 -46 19 C-46.73734375 19.30550781 -47.4746875 19.61101562 -48.234375 19.92578125 C-55.99254643 23.23612884 -63.47477472 27.19823879 -71 31 C-73.95664519 32.4783226 -76.74229737 32.06032783 -80 32 C-82.20536756 25.75145858 -82.20536756 25.75145858 -81.3125 22.484375 C-77.77846072 15.79494351 -69.69279842 11.9354379 -63 9 C-62.34 9 -61.68 9 -61 9 C-60.67 9.99 -60.34 10.98 -60 12 C-60.33 12.66 -60.66 13.32 -61 14 C-61.70125 13.9175 -62.4025 13.835 -63.125 13.75 C-69.11180379 14.27059163 -73.04946341 18.81707891 -77 23 C-73.62902617 24.49821059 -71.79557881 25 -68 25 C-68.33 24.01 -68.66 23.02 -69 22 C-68.34 21.67 -67.68 21.34 -67 21 C-67 21.99 -67 22.98 -67 24 C-66.01 24 -65.02 24 -64 24 C-63.67 23.01 -63.34 22.02 -63 21 C-60.8828125 20.0078125 -60.8828125 20.0078125 -58.125 19.125 C-54.18326812 17.79757873 -50.48480103 16.32814585 -46.75 14.5 C-34.67736127 8.87189216 -21.95440105 6.82342031 -8.75 6.875 C-7.74453125 6.87113281 -6.7390625 6.86726563 -5.703125 6.86328125 C-4.7440625 6.86457031 -3.785 6.86585937 -2.796875 6.8671875 C-1.92385742 6.86831543 -1.05083984 6.86944336 -0.15136719 6.87060547 C2 7 2 7 4 8 C3.505 5.03 3.505 5.03 3 2 C2.01 1.67 1.02 1.34 0 1 C0 0.67 0 0.34 0 0 Z " fill="#AF7800" transform="translate(131,49)"/>
<path d="M0 0 C0.99 0 1.98 0 3 0 C2.796875 2.359375 2.796875 2.359375 2 5 C-0.109375 6.328125 -0.109375 6.328125 -2.75 7.25 C-3.61109375 7.56453125 -4.4721875 7.8790625 -5.359375 8.203125 C-7.89428102 8.96809664 -10.3954796 9.53156108 -13 10 C-13.33 10.99 -13.66 11.98 -14 13 C-16.47334238 14.04777631 -18.82027892 14.90161461 -21.375 15.6875 C-22.06078125 15.91244141 -22.7465625 16.13738281 -23.453125 16.36914062 C-26.40765356 17.31470473 -28.8803551 18 -32 18 C-32 18.66 -32 19.32 -32 20 C-53.60739583 28.72551414 -53.60739583 28.72551414 -63 32 C-63.14453125 29.61328125 -63.14453125 29.61328125 -63 27 C-60.13896577 24.75756777 -58.65923696 24 -55 24 C-55 23.34 -55 22.68 -55 22 C-50.20690663 19.41172958 -45.46492515 17.40388198 -40.3125 15.625 C-34.36279355 13.55692022 -28.7234239 11.10517221 -23.03125 8.41796875 C-16.37591165 5.30471125 -9.95196803 2.75546675 -2.71484375 1.39453125 C-0.9776745 1.15452891 -0.9776745 1.15452891 0 0 Z " fill="#444551" transform="translate(97,9)"/>
<path d="M0 0 C2 3 2 3 2 9 C-9.88 9 -21.76 9 -34 9 C-33.34 7.35 -32.68 5.7 -32 4 C-34.64 4 -37.28 4 -40 4 C-37.29983904 -0.05024144 -34.26177257 -0.24069316 -29.75 -1.1875 C-28.94530273 -1.35967041 -28.14060547 -1.53184082 -27.31152344 -1.70922852 C-18.01901706 -3.56901684 -8.46182141 -5.13753443 0 0 Z " fill="#F8CA04" transform="translate(136,61)"/>
<path d="M0 0 C0.33 0 0.66 0 1 0 C1 2.31 1 4.62 1 7 C1.66 7 2.32 7 3 7 C3.19517554 8.93674185 3.38087873 10.87444009 3.5625 12.8125 C3.66691406 13.89144531 3.77132813 14.97039062 3.87890625 16.08203125 C4 19 4 19 3 22 C3.33 22.99 3.66 23.98 4 25 C3.5987822 27.41011251 3.10870298 29.80605499 2.5625 32.1875 C2.27503906 33.45980469 1.98757812 34.73210937 1.69140625 36.04296875 C1.46324219 37.01878906 1.23507813 37.99460938 1 39 C1.99 39.33 2.98 39.66 4 40 C4.33 40.66 4.66 41.32 5 42 C5.99 42.33 6.98 42.66 8 43 C8 42.01 8 41.02 8 40 C8.99 40 9.98 40 11 40 C10.67 37.36 10.34 34.72 10 32 C11.51953125 33.20703125 11.51953125 33.20703125 13 35 C13.07421875 37.26171875 13.07421875 37.26171875 12.6875 39.6875 C12.56761719 40.49574219 12.44773437 41.30398437 12.32421875 42.13671875 C12.21722656 42.75160156 12.11023438 43.36648437 12 44 C11.01 44 10.02 44 9 44 C8.67 44.66 8.34 45.32 8 46 C13.61 46 19.22 46 25 46 C25 46.33 25 46.66 25 47 C21.00204108 47.95619733 17.29196078 48.1039592 13.1875 48.0625 C12.02605469 48.05347656 10.86460938 48.04445312 9.66796875 48.03515625 C8.78753906 48.02355469 7.90710937 48.01195312 7 48 C7.75150023 51.27773504 7.75150023 51.27773504 11 53 C11.1875 55.625 11.1875 55.625 11 58 C5.33064516 52.62903226 5.33064516 52.62903226 4 49 C4 48.01 4 47.02 4 46 C1.69 45.67 -0.62 45.34 -3 45 C-3 44.34 -3 43.68 -3 43 C-4.65 42.67 -6.3 42.34 -8 42 C-7.82984375 41.40316406 -7.6596875 40.80632812 -7.484375 40.19140625 C-5.81617929 34.21962055 -4.30107532 28.22084525 -2.875 22.1875 C-2.70452148 21.47086182 -2.53404297 20.75422363 -2.35839844 20.01586914 C-0.78875802 13.31213151 0.08196872 7.89755059 -1 1 C-0.67 0.67 -0.34 0.34 0 0 Z " fill="#F7BF04" transform="translate(25,64)"/>
<path d="M0 0 C0.33 0 0.66 0 1 0 C0.51172287 7.47834967 -0.33405548 14.68925318 -2 22 C-4.89310682 21.53272845 -7.78356278 21.05480853 -10.671875 20.55859375 C-12.7607667 20.20799338 -14.85440413 19.88359309 -16.953125 19.59765625 C-19.40961386 19.22056366 -21.66473533 18.85218328 -24 18 C-25.625 15.375 -25.625 15.375 -26 13 C-23.77654122 10.52071775 -21.74871835 9.25089852 -18.69140625 7.95703125 C-17.86189453 7.60576172 -17.03238281 7.25449219 -16.17773438 6.89257812 C-15.31470703 6.53615234 -14.45167969 6.17972656 -13.5625 5.8125 C-12.70333984 5.44447266 -11.84417969 5.07644531 -10.95898438 4.69726562 C-6.95362799 3.02241141 -4.42445606 2 0 2 C0 1.34 0 0.68 0 0 Z " fill="#2D2F3C" transform="translate(31,35)"/>
<path d="M0 0 C0.6875 3.125 0.6875 3.125 1 6 C0.33581055 5.99476318 -0.32837891 5.98952637 -1.01269531 5.98413086 C-4.09179207 5.9630375 -7.17085342 5.94926369 -10.25 5.9375 C-11.34852295 5.93202148 -12.4470459 5.92654297 -13.57885742 5.92089844 C-20.13381541 5.91506533 -26.44729971 6.12602148 -32.92578125 7.171875 C-35 7 -35 7 -36.66796875 5.078125 C-37.10753906 4.39234375 -37.54710938 3.7065625 -38 3 C-38.66 2.67 -39.32 2.34 -40 2 C-39.4375 0.0625 -39.4375 0.0625 -38 -2 C-32.05796212 -3.2012206 -25.98118037 -3.38430533 -19.9375 -3.6875 C-18.48633789 -3.77741211 -18.48633789 -3.77741211 -17.00585938 -3.86914062 C-10.34515998 -4.20194764 -5.68529508 -3.79019672 0 0 Z " fill="#F9DA22" transform="translate(134,51)"/>
<path d="M0 0 C0 0.66 0 1.32 0 2 C0.66 2 1.32 2 2 2 C2 15.86 2 29.72 2 44 C-3.01396648 42.74650838 -3.01396648 42.74650838 -5 40 C-5.109375 37.94921875 -5.109375 37.94921875 -4.75 35.6875 C-4.63398438 34.89472656 -4.51796875 34.10195312 -4.3984375 33.28515625 C-4.06910536 31.39633957 -3.72412206 29.51025911 -3.375 27.625 C-2.78571015 24.89751355 -2.78571015 24.89751355 -4 22 C-3.67 21.01 -3.34 20.02 -3 19 C-2.9314505 17.10529184 -2.91519628 15.2083166 -2.9375 13.3125 C-2.94652344 12.31863281 -2.95554687 11.32476562 -2.96484375 10.30078125 C-2.97644531 9.54152344 -2.98804688 8.78226563 -3 8 C-3.66 8 -4.32 8 -5 8 C-5 5.69 -5 3.38 -5 1 C-3 0 -3 0 0 0 Z " fill="#FBD10A" transform="translate(31,63)"/>
<path d="M0 0 C0.66 0.33 1.32 0.66 2 1 C2 2.32 2 3.64 2 5 C0.96101563 5.30292969 -0.07796875 5.60585938 -1.1484375 5.91796875 C-9.19854692 8.31618218 -16.59332963 10.98304904 -24 15 C-25.3957623 15.62515862 -26.79159267 16.25016529 -28.1875 16.875 C-32.00189805 18.75143775 -34.51511655 21.37784038 -37.40234375 24.44921875 C-40.35302625 27.31332866 -42.98430557 28 -47 28 C-46.67 25.69 -46.34 23.38 -46 21 C-40.29959514 19.05668016 -40.29959514 19.05668016 -37.6875 18.5625 C-37.130625 18.376875 -36.57375 18.19125 -36 18 C-35.67 17.01 -35.34 16.02 -35 15 C-32.890625 13.9375 -32.890625 13.9375 -30.25 13 C-27.50519636 12.013843 -25.09612797 11.05896267 -22.60546875 9.53125 C-19.52394792 7.72022127 -16.4459808 6.64619545 -13.0625 5.5 C-9.43812086 4.26952525 -6.08477834 3.04393695 -2.68359375 1.28125 C-1.79800781 0.8584375 -0.91242188 0.435625 0 0 Z " fill="#101014" transform="translate(81,24)"/>
<path d="M0 0 C0.99 0 1.98 0 3 0 C2.796875 2.359375 2.796875 2.359375 2 5 C-0.109375 6.328125 -0.109375 6.328125 -2.75 7.25 C-3.61109375 7.56453125 -4.4721875 7.8790625 -5.359375 8.203125 C-7.89428102 8.96809664 -10.3954796 9.53156108 -13 10 C-13.33 10.99 -13.66 11.98 -14 13 C-17.68024974 14.61930989 -22.07192162 14.12878946 -26 14 C-26.33 13.67 -26.66 13.34 -27 13 C-28.64706553 13.64268437 -30.29262175 14.28923802 -31.9375 14.9375 C-32.85402344 15.29714844 -33.77054688 15.65679687 -34.71484375 16.02734375 C-36.92418533 16.7996218 -36.92418533 16.7996218 -38 18 C-39.66617115 18.04063832 -41.33388095 18.042721 -43 18 C-39.38177886 14.89059121 -35.37953214 13.35816215 -31 11.625 C-29.46856097 11.00958476 -27.93731184 10.39369678 -26.40625 9.77734375 C-25.28089844 9.32657471 -25.28089844 9.32657471 -24.1328125 8.86669922 C-21.23407687 7.68875605 -18.36987539 6.43382475 -15.5 5.1875 C-10.71018903 3.17247607 -6.09059753 2.00142902 -1 1 C-0.67 0.67 -0.34 0.34 0 0 Z " fill="#454755" transform="translate(97,9)"/>
<path d="M0 0 C2.475 0.495 2.475 0.495 5 1 C4.67 2.65 4.34 4.3 4 6 C6.97 4.02 9.94 2.04 13 0 C13.66 0.33 14.32 0.66 15 1 C13.93857802 4.83744869 12.80269883 8.61238256 11.5 12.375 C8.99921055 19.82684734 7.74404342 27.18754412 7 35 C5.68 34.34 4.36 33.68 3 33 C3.495 32.505 3.495 32.505 4 32 C4.15947739 30.1276173 4.27721108 28.25161592 4.375 26.375 C4.74899858 21.23711793 5.62462115 17.54420301 8 13 C7.34 12.67 6.68 12.34 6 12 C4.66666667 11.33333333 3.33333333 10.66666667 2 10 C2 10.66 2 11.32 2 12 C1.34 12 0.68 12 0 12 C0 8.04 0 4.08 0 0 Z " fill="#F5C50D" transform="translate(89,148)"/>
<path d="M0 0 C0.33 0 0.66 0 1 0 C1.3690205 11.52164009 1.3690205 11.52164009 -1 17 C-0.34 17 0.32 17 1 17 C1.33 16.01 1.66 15.02 2 14 C2.33 14 2.66 14 3 14 C3 15.65 3 17.3 3 19 C4.98 19.66 6.96 20.32 9 21 C9.66 19.35 10.32 17.7 11 16 C11.99 16 12.98 16 14 16 C13.67 13.36 13.34 10.72 13 8 C14.51953125 9.20703125 14.51953125 9.20703125 16 11 C16.07421875 13.26171875 16.07421875 13.26171875 15.6875 15.6875 C15.56761719 16.49574219 15.44773437 17.30398437 15.32421875 18.13671875 C15.21722656 18.75160156 15.11023438 19.36648437 15 20 C14.01 20 13.02 20 12 20 C11.67 20.66 11.34 21.32 11 22 C16.61 22 22.22 22 28 22 C28 22.33 28 22.66 28 23 C24.00204108 23.95619733 20.29196078 24.1039592 16.1875 24.0625 C15.02605469 24.05347656 13.86460938 24.04445313 12.66796875 24.03515625 C11.78753906 24.02355469 10.90710937 24.01195313 10 24 C10.75150023 27.27773504 10.75150023 27.27773504 14 29 C14.1875 31.625 14.1875 31.625 14 34 C8.33064516 28.62903226 8.33064516 28.62903226 7 25 C7 24.01 7 23.02 7 22 C4.69 21.67 2.38 21.34 0 21 C0 20.34 0 19.68 0 19 C-1.65 18.67 -3.3 18.34 -5 18 C-3.36959185 11.98922864 -1.72852643 5.98336072 0 0 Z " fill="#9F8D2E" transform="translate(22,88)"/>
<path d="M0 0 C2 1 2 1 4 3 C3.67 3.66 3.34 4.32 3 5 C3.66 5 4.32 5 5 5 C5.33 4.34 5.66 3.68 6 3 C9 6.75 9 6.75 9 9 C10.29233607 10.37310707 11.62437146 11.71034824 13 13 C11.83597656 12.67515625 11.83597656 12.67515625 10.6484375 12.34375 C-1.36452125 9.24733104 -12.75510372 9.60058328 -25 11 C-25 10.34 -25 9.68 -25 9 C-24.01 8.67 -23.02 8.34 -22 8 C-21.67 7.34 -21.34 6.68 -21 6 C-19.35451172 6.10441406 -19.35451172 6.10441406 -17.67578125 6.2109375 C-16.22141562 6.26723552 -14.76698348 6.3218335 -13.3125 6.375 C-12.59126953 6.42527344 -11.87003906 6.47554687 -11.12695312 6.52734375 C-6.91516423 6.66600956 -6.91516423 6.66600956 -3.36474609 4.63769531 C-1.79863531 2.8188429 -1.79863531 2.8188429 0 0 Z " fill="#44433F" transform="translate(122,37)"/>
<path d="M0 0 C0.16702456 4.34263862 0.12999997 7.20960634 -2 11 C-4.58463502 10.71749338 -7.16731135 10.4243774 -9.75 10.125 C-10.47960938 10.04636719 -11.20921875 9.96773437 -11.9609375 9.88671875 C-19.04655777 9.04932726 -19.04655777 9.04932726 -22 7 C-22.75 4.875 -22.75 4.875 -23 3 C-21.5459375 3.3403125 -21.5459375 3.3403125 -20.0625 3.6875 C-12.80957198 4.76803826 -7.13080909 -0.18765287 0 0 Z " fill="#1B1C22" transform="translate(28,45)"/>
<path d="M0 0 C0.33 0.99 0.66 1.98 1 3 C0.67 3.66 0.34 4.32 0 5 C-0.70125 4.9175 -1.4025 4.835 -2.125 4.75 C-8.11180379 5.27059163 -12.04946341 9.81707891 -16 14 C-12.62902617 15.49821059 -10.79557881 16 -7 16 C-7.33 15.01 -7.66 14.02 -8 13 C-7.34 12.67 -6.68 12.34 -6 12 C-5.67 13.32 -5.34 14.64 -5 16 C-9.455 18.475 -9.455 18.475 -14 21 C-13.34 21.66 -12.68 22.32 -12 23 C-14.31 23 -16.62 23 -19 23 C-21.20536756 16.75145858 -21.20536756 16.75145858 -20.3125 13.484375 C-17.16640742 7.5292712 -6.93691586 0 0 0 Z " fill="#D0970F" transform="translate(70,58)"/>
<path d="M0 0 C4.63157895 1.34072022 4.63157895 1.34072022 6.1875 4.125 C6.455625 5.07375 6.72375 6.0225 7 7 C7.18433594 7.61359375 7.36867187 8.2271875 7.55859375 8.859375 C8.81013884 13.31314924 9.2853097 17.33994158 9 22 C8.505 22.495 8.505 22.495 8 23 C13.94 23.99 13.94 23.99 20 25 C20 25.33 20 25.66 20 26 C13.07 25.67 6.14 25.34 -1 25 C-1 26.65 -1 28.3 -1 30 C-1.99 30 -2.98 30 -4 30 C-3.01 26.535 -3.01 26.535 -2 23 C-8.6 22.67 -15.2 22.34 -22 22 C-22.33 23.32 -22.66 24.64 -23 26 C-23 25.01 -23 24.02 -23 23 C-23.66 23 -24.32 23 -25 23 C-25 22.34 -25 21.68 -25 21 C-14.44 21 -3.88 21 7 21 C5.01552437 14.05433531 3.86947071 10.91298047 -2 7 C0.97 7.495 0.97 7.495 4 8 C3.67 6.02 3.34 4.04 3 2 C2.01 1.67 1.02 1.34 0 1 C0 0.67 0 0.34 0 0 Z " fill="#AF9D2E" transform="translate(131,49)"/>
<path d="M0 0 C0 0.66 0 1.32 0 2 C-1.670625 2.4021875 -1.670625 2.4021875 -3.375 2.8125 C-5.89724962 3.92106939 -6.79688828 4.51579618 -7.875 7.0859375 C-8.447606 10.06527807 -8.76402007 12.97390441 -9 16 C-9.05349609 16.68578125 -9.10699219 17.3715625 -9.16210938 18.078125 C-9.51159829 22.71604845 -9.77849932 27.35431471 -10 32 C-9.01 32.33 -8.02 32.66 -7 33 C-6.1875 34.8125 -6.1875 34.8125 -6 37 C-6.495 37.928125 -6.495 37.928125 -7 38.875 C-8.41495774 41.8817852 -7.82296932 43.84528428 -7 47 C-6.34 47.66 -5.68 48.32 -5 49 C-6.65 49 -8.3 49 -10 49 C-10.02715383 47.25008666 -10.04646551 45.50005055 -10.0625 43.75 C-10.07410156 42.77546875 -10.08570313 41.8009375 -10.09765625 40.796875 C-10.01195577 38.34241322 -9.70706066 36.33831086 -9 34 C-9.66 34 -10.32 34 -11 34 C-11 33.34 -11 32.68 -11 32 C-13.475 32.495 -13.475 32.495 -16 33 C-15.80083984 32.40574219 -15.60167969 31.81148437 -15.39648438 31.19921875 C-13.06339547 23.89909143 -12.02749971 16.74749739 -11.18359375 9.15234375 C-11.07144531 8.25644531 -10.95929687 7.36054687 -10.84375 6.4375 C-10.75287109 5.63183594 -10.66199219 4.82617188 -10.56835938 3.99609375 C-9.11260914 -1.11654111 -4.32486931 -0.16320262 0 0 Z " fill="#BEA838" transform="translate(42,31)"/>
<path d="M0 0 C2 3 2 3 2 9 C-3.61 9 -9.22 9 -15 9 C-15 8.67 -15 8.34 -15 8 C-11.7 7.67 -8.4 7.34 -5 7 C-4.855625 6.195625 -4.71125 5.39125 -4.5625 4.5625 C-4 2 -4 2 -3 1 C-8.6974482 -1.51301587 -13.81916976 -1.0352866 -19.875 -0.625 C-21.33679688 -0.53992187 -21.33679688 -0.53992187 -22.828125 -0.453125 C-25.2195783 -0.31245128 -27.60985226 -0.1611264 -30 0 C-30 -0.33 -30 -0.66 -30 -1 C-20.26103485 -3.51328133 -8.92895561 -5.50963012 0 0 Z " fill="#F1C10B" transform="translate(136,61)"/>
<path d="M0 0 C-1.65 0.66 -3.3 1.32 -5 2 C-5 2.99 -5 3.98 -5 5 C-4.34 5.33 -3.68 5.66 -3 6 C-5.08129104 6.98350025 -7.16511359 7.96164458 -9.25 8.9375 C-10.41015625 9.48277344 -11.5703125 10.02804688 -12.765625 10.58984375 C-15.23044777 11.66448266 -17.38065227 12.48780081 -20 13 C-20.3125 10.6875 -20.3125 10.6875 -20 8 C-17.13896577 5.75756777 -15.65923696 5 -12 5 C-12 4.34 -12 3.68 -12 3 C-10.75823305 2.29773859 -9.50614401 1.61370891 -8.25 0.9375 C-7.55390625 0.55464844 -6.8578125 0.17179687 -6.140625 -0.22265625 C-3.63859372 -1.1312406 -2.4667645 -0.88336837 0 0 Z " fill="#3E3D4C" transform="translate(54,28)"/>
<path d="M0 0 C0 0.66 0 1.32 0 2 C0.66 2 1.32 2 2 2 C1.7834375 3.423125 1.7834375 3.423125 1.5625 4.875 C1.11198035 7.95355096 0.82238848 11.02490173 0.5625 14.125 C0.22118123 17.73637277 -0.35831139 20.71662278 -2 24 C-2.66 23.34 -3.32 22.68 -4 22 C-3.67 21.01 -3.34 20.02 -3 19 C-2.9314505 17.10529184 -2.91519628 15.2083166 -2.9375 13.3125 C-2.94652344 12.31863281 -2.95554687 11.32476562 -2.96484375 10.30078125 C-2.97644531 9.54152344 -2.98804688 8.78226563 -3 8 C-3.66 8 -4.32 8 -5 8 C-5 5.69 -5 3.38 -5 1 C-3 0 -3 0 0 0 Z " fill="#FBC807" transform="translate(31,63)"/>
<path d="M0 0 C-1.24460783 0.67667998 -2.49596896 1.34094719 -3.75 2 C-4.44609375 2.37125 -5.1421875 2.7425 -5.859375 3.125 C-8 4 -8 4 -12 4 C-12 4.99 -12 5.98 -12 7 C-12.66 7 -13.32 7 -14 7 C-14.33 7.99 -14.66 8.98 -15 10 C-16.66611905 10.042721 -18.33382885 10.04063832 -20 10 C-20.33 9.67 -20.66 9.34 -21 9 C-22.64706553 9.64268437 -24.29262175 10.28923802 -25.9375 10.9375 C-26.85402344 11.29714844 -27.77054688 11.65679687 -28.71484375 12.02734375 C-30.92418533 12.7996218 -30.92418533 12.7996218 -32 14 C-33.66617115 14.04063832 -35.33388095 14.042721 -37 14 C-33.38193268 10.8907234 -29.37959576 9.35769359 -25 7.625 C-23.47501441 7.01363411 -21.95027618 6.40165086 -20.42578125 5.7890625 C-19.67635254 5.4890332 -18.92692383 5.18900391 -18.15478516 4.87988281 C-14.20186507 3.26575138 -10.30946395 1.50638711 -6.41796875 -0.25 C-3.78283135 -1.06736087 -2.55051309 -0.95124031 0 0 Z " fill="#3A435A" transform="translate(91,13)"/>
<path d="M0 0 C0 4.66666667 0 9.33333333 0 14 C0.66 14.33 1.32 14.66 2 15 C-1.86817267 15 -2.54640451 13.91469484 -5.25 11.25 C-5.97703125 10.55390625 -6.7040625 9.8578125 -7.453125 9.140625 C-9 7 -9 7 -8.91796875 4.84375 C-7.28041502 1.55470592 -3.59810446 0 0 0 Z " fill="#F3C70B" transform="translate(59,141)"/>
<path d="M0 0 C0.84691406 0.46792969 0.84691406 0.46792969 1.7109375 0.9453125 C-0.2690625 1.6053125 -2.2490625 2.2653125 -4.2890625 2.9453125 C-4.2890625 3.6053125 -4.2890625 4.2653125 -4.2890625 4.9453125 C-8.2490625 5.6053125 -12.2090625 6.2653125 -16.2890625 6.9453125 C-15.2890625 4.9453125 -15.2890625 4.9453125 -12.2890625 3.9453125 C-11.55582454 1.93022892 -11.55582454 1.93022892 -11.2890625 -0.0546875 C-12.3615625 0.4609375 -13.4340625 0.9765625 -14.5390625 1.5078125 C-17.54161149 2.95134567 -19.12152749 3.00349344 -22.2890625 1.9453125 C-14.80541843 -1.76466424 -7.9234235 -3.65072414 0 0 Z " fill="#33343F" transform="translate(111.2890625,9.0546875)"/>
<path d="M0 0 C4.58102956 4.73373054 6.01145659 9.44256866 5.99511719 15.94238281 C5.5997555 28.800489 5.5997555 28.800489 4 32 C2.35 31.67 0.7 31.34 -1 31 C-0.34 30.67 0.32 30.34 1 30 C1.66 30.33 2.32 30.66 3 31 C2.67 26.71 2.34 22.42 2 18 C2.66 18 3.32 18 4 18 C3.67 14.7 3.34 11.4 3 8 C2.34 8 1.68 8 1 8 C0.67 5.36 0.34 2.72 0 0 Z " fill="#CFB630" transform="translate(161,82)"/>
<path d="M0 0 C15.79595474 -0.87890938 15.79595474 -0.87890938 22 4 C22.734375 6.140625 22.734375 6.140625 23 8 C21.88625 7.2884375 21.88625 7.2884375 20.75 6.5625 C13.59881506 2.49932674 3.98821723 3.03237723 -3.8125 5 C-4.864375 5.33 -5.91625 5.66 -7 6 C-5 3 -5 3 -2.375 2.3125 C-1.59125 2.209375 -0.8075 2.10625 0 2 C0 1.34 0 0.68 0 0 Z " fill="#BAA626" transform="translate(135,102)"/>
<path d="M0 0 C0.94939453 0.19916016 0.94939453 0.19916016 1.91796875 0.40234375 C6.03691438 1.20107465 10.17298932 1.87966043 14.3125 2.5625 C15.56643555 2.77036133 15.56643555 2.77036133 16.84570312 2.98242188 C18.89701315 3.32235325 20.94849007 3.66127718 23 4 C23.33 5.65 23.66 7.3 24 9 C23.01 9 22.02 9 21 9 C21 9.66 21 10.32 21 11 C19.02 11.33 17.04 11.66 15 12 C16 9 16 9 19 7 C17.96359375 6.74605469 16.9271875 6.49210938 15.859375 6.23046875 C14.48946007 5.88329853 13.1196751 5.53561521 11.75 5.1875 C11.06808594 5.02185547 10.38617188 4.85621094 9.68359375 4.68554688 C5.85295688 3.69999467 2.95909834 2.6616632 0 0 Z " fill="#A89525" transform="translate(45,129)"/>
<path d="M0 0 C5.625 -0.25 5.625 -0.25 9 2 C9.6875 5.125 9.6875 5.125 10 8 C8.01926635 7.719172 6.04041552 7.42503386 4.0625 7.125 C2.40927734 6.88136719 2.40927734 6.88136719 0.72265625 6.6328125 C-0.17582031 6.42398438 -1.07429688 6.21515625 -2 6 C-2.33 5.34 -2.66 4.68 -3 4 C-2.34 3.67 -1.68 3.34 -1 3 C-0.67 2.01 -0.34 1.02 0 0 Z " fill="#FADA0A" transform="translate(125,49)"/>
<path d="M0 0 C-0.969375 0.7425 -1.93875 1.485 -2.9375 2.25 C-5.33256053 4.2613335 -5.33256053 4.2613335 -6.875 6.9375 C-7.03760001 9.62040022 -7 12.31217702 -7 15 C-11.29 15 -15.58 15 -20 15 C-20 14.67 -20 14.34 -20 14 C-16.04 14 -12.08 14 -8 14 C-8.515625 12.783125 -9.03125 11.56625 -9.5625 10.3125 C-10.88633244 6.82970718 -11.24590885 4.62446212 -10 1 C-3.375 -1.125 -3.375 -1.125 0 0 Z " fill="#534518" transform="translate(57,65)"/>
<path d="M0 0 C1.37562854 1.28965176 2.70766393 2.62689293 4 4 C4 4.66 4 5.32 4 6 C5.29233607 7.37310707 6.62437146 8.71034824 8 10 C7.20078125 9.79503906 6.4015625 9.59007812 5.578125 9.37890625 C-1.96298165 7.52903384 -9.24734036 6.40509393 -17 6 C-17 5.67 -17 5.34 -17 5 C-14.87506859 4.97306425 -12.75004088 4.95363372 -10.625 4.9375 C-9.44164063 4.92589844 -8.25828125 4.91429687 -7.0390625 4.90234375 C-4 5 -4 5 -2 6 C-2 5.01 -2 4.02 -2 3 C-2.66 2.67 -3.32 2.34 -4 2 C-2.68 2 -1.36 2 0 2 C0 1.34 0 0.68 0 0 Z " fill="#46412F" transform="translate(127,40)"/>
<path d="M0 0 C0.99 0.33 1.98 0.66 3 1 C3 4.63 3 8.26 3 12 C0.0625 11.25 0.0625 11.25 -3 10 C-4 8.125 -4 8.125 -4 6 C-3.0625 3.75 -3.0625 3.75 -2 2 C-1.34 2 -0.68 2 0 2 C0 1.34 0 0.68 0 0 Z " fill="#EBC10B" transform="translate(161,101)"/>
<path d="M0 0 C2.64 0.33 5.28 0.66 8 1 C8 1.66 8 2.32 8 3 C11.465 2.505 11.465 2.505 15 2 C17 5 17 5 17 9 C15.02 9 13.04 9 11 9 C11 8.01 11 7.02 11 6 C10.18595703 5.72736328 10.18595703 5.72736328 9.35546875 5.44921875 C8.64003906 5.19785156 7.92460938 4.94648437 7.1875 4.6875 C6.47980469 4.44386719 5.77210937 4.20023437 5.04296875 3.94921875 C2.85527627 2.93275742 1.59103282 1.79179406 0 0 Z " fill="#C7AC1B" transform="translate(41,101)"/>
<path d="M0 0 C0.33 0 0.66 0 1 0 C1 2.31 1 4.62 1 7 C1.66 7 2.32 7 3 7 C2.67 11.29 2.34 15.58 2 20 C1.01 20.33 0.02 20.66 -1 21 C-1.33 21.99 -1.66 22.98 -2 24 C-1.13518588 14.68944799 -1.13518588 14.68944799 -0.375 10.8125 C0.08212198 7.38408516 -0.46658125 4.40054452 -1 1 C-0.67 0.67 -0.34 0.34 0 0 Z " fill="#B99A27" transform="translate(25,64)"/>
<path d="M0 0 C0.66 -0.33 1.32 -0.66 2 -1 C2.66 -0.34 3.32 0.32 4 1 C1.90049414 1.86555948 -0.2047907 2.71711277 -2.3125 3.5625 C-4.07013672 4.27599609 -4.07013672 4.27599609 -5.86328125 5.00390625 C-9 6 -9 6 -12 5 C-12 4.01 -12 3.02 -12 2 C-7.8863677 -1.49035468 -5.09964788 -0.96219771 0 0 Z " fill="#3F4049" transform="translate(61,28)"/>
<path d="M0 0 C2.66671086 0.31212639 5.33336905 0.62469221 8 0.9375 C9.11568359 1.06801758 9.11568359 1.06801758 10.25390625 1.20117188 C15.17221292 1.77853831 20.08684772 2.38027284 25 3 C25 3.66 25 4.32 25 5 C18.56688704 5.09507063 12.34241995 5.15316726 6 4 C6 3.34 6 2.68 6 2 C4.35 2 2.7 2 1 2 C0.67 1.34 0.34 0.68 0 0 Z " fill="#3E404C" transform="translate(137,17)"/>
<path d="M0 0 C0.33 0 0.66 0 1 0 C1.3690205 11.52164009 1.3690205 11.52164009 -1 17 C-0.34 17 0.32 17 1 17 C1.33 16.01 1.66 15.02 2 14 C2.33 14 2.66 14 3 14 C3 15.65 3 17.3 3 19 C0.36 18.67 -2.28 18.34 -5 18 C-3.36959185 11.98922864 -1.72852643 5.98336072 0 0 Z " fill="#B89C2E" transform="translate(22,88)"/>
<path d="M0 0 C0.99 0.33 1.98 0.66 3 1 C3 1.66 3 2.32 3 3 C3.95261719 3.04898438 4.90523437 3.09796875 5.88671875 3.1484375 C7.76810547 3.26058594 7.76810547 3.26058594 9.6875 3.375 C10.92886719 3.44460937 12.17023437 3.51421875 13.44921875 3.5859375 C16.69317772 3.96422094 19.06567185 4.61979976 22 6 C21.67 6.66 21.34 7.32 21 8 C18.41536498 7.71749338 15.83268865 7.4243774 13.25 7.125 C12.15558594 7.00705078 12.15558594 7.00705078 11.0390625 6.88671875 C3.95344223 6.04932726 3.95344223 6.04932726 1 4 C0.25 1.875 0.25 1.875 0 0 Z " fill="#111D37" transform="translate(5,48)"/>
<path d="M0 0 C0.61875 0.804375 1.2375 1.60875 1.875 2.4375 C3.74164041 5.03874519 3.74164041 5.03874519 6 6 C8.10955062 6.19738723 8.10955062 6.19738723 10.4375 6.1875 C11.61119141 6.20876953 11.61119141 6.20876953 12.80859375 6.23046875 C15.29205987 6.14086064 15.29205987 6.14086064 18 4 C18 5.65 18 7.3 18 9 C14.32964424 10.83517788 9.95244918 9.62047868 6 9 C2.875 7.9375 2.875 7.9375 1 7 C0.67 4.69 0.34 2.38 0 0 Z " fill="#B6A329" transform="translate(109,75)"/>
<path d="M0 0 C0.66 1.32 1.32 2.64 2 4 C-0.97 5.65 -3.94 7.3 -7 9 C-6.34 9.66 -5.68 10.32 -5 11 C-7.31 11 -9.62 11 -12 11 C-11.8125 8.625 -11.8125 8.625 -11 6 C-7.38684234 3.83210541 -4.14058636 3.80741459 0 4 C-0.33 3.01 -0.66 2.02 -1 1 C-0.67 0.67 -0.34 0.34 0 0 Z " fill="#D39708" transform="translate(63,70)"/>
<path d="M0 0 C0.33 0 0.66 0 1 0 C0.51172287 7.47834967 -0.33405548 14.68925318 -2 22 C-2.66 21.67 -3.32 21.34 -4 21 C-3.66569599 13.43781278 -3.12892533 6.93805182 0 0 Z " fill="#493F0F" transform="translate(31,35)"/>
<path d="M0 0 C0.33 0 0.66 0 1 0 C1.8889687 6.58371553 2.04613986 12.81003199 1.6875 19.4375 C1.63432617 20.78231445 1.63432617 20.78231445 1.58007812 22.15429688 C1.53689453 23.00958984 1.49371094 23.86488281 1.44921875 24.74609375 C1.41143311 25.51622803 1.37364746 26.2863623 1.3347168 27.07983398 C1 29 1 29 -1 31 C-1.02923559 27.14584948 -1.04687777 23.29172785 -1.0625 19.4375 C-1.07087891 18.35146484 -1.07925781 17.26542969 -1.08789062 16.14648438 C-1.10459218 10.65167389 -0.98582259 5.41038065 0 0 Z " fill="#FED81F" transform="translate(31,72)"/>
<path d="M0 0 C-2.52956528 3.0916909 -5.22454612 3.90931332 -9 5 C-8.40049704 8.68266103 -7.75241109 12.34543185 -7 16 C-8.32 15.34 -9.64 14.68 -11 14 C-11 10.04 -11 6.08 -11 2 C-7.17679443 0.57741188 -4.08718695 -0.24042276 0 0 Z " fill="#1E2C3C" transform="translate(141,32)"/>
<path d="M0 0 C3.0375486 0.87929038 4.61983604 1.38449645 6.3125 4.125 C7.20688816 7.86516866 7.13026736 11.15711298 7 15 C5.88625 13.8553125 5.88625 13.8553125 4.75 12.6875 C2.5736677 10.5606298 0.47832204 8.7440044 -2 7 C0.97 7.495 0.97 7.495 4 8 C3.67 6.02 3.34 4.04 3 2 C2.01 1.67 1.02 1.34 0 1 C0 0.67 0 0.34 0 0 Z " fill="#C7A524" transform="translate(131,49)"/>
<path d="M0 0 C1.32 0.33 2.64 0.66 4 1 C2.63055898 3.94956528 1.12169591 6.52468811 -1 9 C-1.66 9 -2.32 9 -3 9 C-3.66 10.65 -4.32 12.3 -5 14 C-5.33 14 -5.66 14 -6 14 C-6.33 11.69 -6.66 9.38 -7 7 C-5.68 7 -4.36 7 -3 7 C-3 6.34 -3 5.68 -3 5 C-2.01 4.34 -1.02 3.68 0 3 C0 2.01 0 1.02 0 0 Z " fill="#B39B23" transform="translate(111,117)"/>
<path d="M0 0 C0.33 1.32 0.66 2.64 1 4 C-0.6875 5.5625 -0.6875 5.5625 -3 7 C-5.75 6.6875 -5.75 6.6875 -8 6 C-7.34 7.32 -6.68 8.64 -6 10 C-7.32 10.33 -8.64 10.66 -10 11 C-10.3125 8.6875 -10.3125 8.6875 -10 6 C-7.13896577 3.75756777 -5.65923696 3 -2 3 C-2 2.34 -2 1.68 -2 1 C-1.34 0.67 -0.68 0.34 0 0 Z " fill="#514627" transform="translate(44,30)"/>
<path d="M0 0 C0.99 0.99 1.98 1.98 3 3 C0.91891315 3.67364661 -1.1649671 4.33866798 -3.25 5 C-4.41015625 5.37125 -5.5703125 5.7425 -6.765625 6.125 C-10 7 -10 7 -14 7 C-13.67 5.35 -13.34 3.7 -13 2 C-11.8553125 2.495 -11.8553125 2.495 -10.6875 3 C-8.00930865 4.17436686 -8.00930865 4.17436686 -5 4 C-4.67 3.34 -4.34 2.68 -4 2 C-1.9375 0.875 -1.9375 0.875 0 0 Z " fill="#F2C10F" transform="translate(97,56)"/>
<path d="M0 0 C2 1 2 1 3.125 3.6875 C3.98889074 6.9579435 4.16013991 9.63706182 4 13 C3.01 13 2.02 13 1 13 C-0.32229189 10.35541621 -0.09677194 8.32238699 -0.0625 5.375 C-0.05347656 4.37210937 -0.04445313 3.36921875 -0.03515625 2.3359375 C-0.02355469 1.56507812 -0.01195313 0.79421875 0 0 Z " fill="#DBB516" transform="translate(32,91)"/>
<path d="M0 0 C-5.445 -0.495 -5.445 -0.495 -11 -1 C-11.33 -0.34 -11.66 0.32 -12 1 C-12.5775 0.79375 -13.155 0.5875 -13.75 0.375 C-16.02757055 -0.23128627 -16.02757055 -0.23128627 -18 1 C-20.49092811 2.24546405 -21.41080733 1.7767578 -24 1 C-15.46423183 -3.23156167 -8.71162933 -4.35581467 0 0 Z " fill="#202B42" transform="translate(113,10)"/>
<path d="M0 0 C-0.61875 0.28875 -1.2375 0.5775 -1.875 0.875 C-4.13325765 1.93720042 -4.13325765 1.93720042 -6 4 C-7.32 4 -8.64 4 -10 4 C-11.67225729 4.30404678 -13.34080104 4.63128912 -15 5 C-14 2 -14 2 -12.4375 0.875 C-8.58340348 -0.50852183 -3.77926621 -1.8896331 0 0 Z " fill="#EDC217" transform="translate(95,51)"/>
<path d="M0 0 C0.33 0 0.66 0 1 0 C1 5.28 1 10.56 1 16 C-0.32 15.34 -1.64 14.68 -3 14 C-2.67 13.67 -2.34 13.34 -2 13 C-1.79111292 11.00396794 -1.63224523 9.00257059 -1.5 7 C-1.11111111 1.11111111 -1.11111111 1.11111111 0 0 Z " fill="#D5BE2A" transform="translate(95,167)"/>
<path d="M0 0 C0.66 0.33 1.32 0.66 2 1 C1 4 1 4 -1.6171875 5.421875 C-3.22980469 6.07929688 -3.22980469 6.07929688 -4.875 6.75 C-6.47988281 7.42289063 -6.47988281 7.42289063 -8.1171875 8.109375 C-11 9 -11 9 -14 8 C-12.58671871 7.18162558 -11.16921654 6.37053781 -9.75 5.5625 C-8.96109375 5.11003906 -8.1721875 4.65757813 -7.359375 4.19140625 C-5 3 -5 3 -2.765625 2.46484375 C-2.18296875 2.31144531 -1.6003125 2.15804688 -1 2 C-0.67 1.34 -0.34 0.68 0 0 Z " fill="#182B3E" transform="translate(158,22)"/>
<path d="M0 0 C0.66 0 1.32 0 2 0 C2.33 0.99 2.66 1.98 3 3 C0.51565563 5.34290892 -0.77731593 5.97982934 -4.234375 6.29296875 C-5.39453125 6.25816406 -6.5546875 6.22335938 -7.75 6.1875 C-8.92046875 6.16042969 -10.0909375 6.13335937 -11.296875 6.10546875 C-12.18890625 6.07066406 -13.0809375 6.03585938 -14 6 C-14 5.67 -14 5.34 -14 5 C-9.59085217 3.89771304 -5.51617599 3.92345464 -1 4 C-0.67 2.68 -0.34 1.36 0 0 Z " fill="#EBC919" transform="translate(59,106)"/>
<path d="M0 0 C0.99 0 1.98 0 3 0 C3.33 0.66 3.66 1.32 4 2 C4.66 2.33 5.32 2.66 6 3 C4.7934375 3.4021875 4.7934375 3.4021875 3.5625 3.8125 C2.716875 4.204375 1.87125 4.59625 1 5 C0.67 5.99 0.34 6.98 0 8 C-0.66 8 -1.32 8 -2 8 C-2.20086443 4.28400809 -2.1519437 3.22791555 0 0 Z " fill="#C6A71C" transform="translate(122,106)"/>
<path d="M0 0 C0.33 0 0.66 0 1 0 C0.36934845 5.7809725 -0.65155132 11.3443706 -2 17 C-2.33 17 -2.66 17 -3 17 C-3.55353075 5.47835991 -3.55353075 5.47835991 0 0 Z " fill="#AC992F" transform="translate(99,157)"/>
<path d="M0 0 C0.66 0.33 1.32 0.66 2 1 C1.40138258 3.35171131 0.73075648 5.6859378 0 8 C-0.99 8.495 -0.99 8.495 -2 9 C-2 7.35 -2 5.7 -2 4 C-3.65 4.33 -5.3 4.66 -7 5 C-2.25 1.125 -2.25 1.125 0 0 Z " fill="#9D912F" transform="translate(102,148)"/>
<path d="M0 0 C2 1 2 1 4 3 C3.625 5.125 3.625 5.125 3 7 C0.69 7 -1.62 7 -4 7 C-3.43628586 3.73045798 -2.50037734 2.17424117 0 0 Z " fill="#333644" transform="translate(122,37)"/>
<path d="M0 0 C0.66 0.33 1.32 0.66 2 1 C2 1.99 2 2.98 2 4 C1.39671875 4.13277344 0.7934375 4.26554687 0.171875 4.40234375 C-0.62734375 4.57894531 -1.4265625 4.75554688 -2.25 4.9375 C-3.43335937 5.19853516 -3.43335937 5.19853516 -4.640625 5.46484375 C-6.76878703 5.947556 -8.88532842 6.46163178 -11 7 C-11 6.34 -11 5.68 -11 5 C-9.21289414 4.13633178 -7.4201535 3.28431406 -5.625 2.4375 C-4.62726563 1.96183594 -3.62953125 1.48617188 -2.6015625 0.99609375 C-1.74304688 0.66738281 -0.88453125 0.33867187 0 0 Z " fill="#0E0C11" transform="translate(81,24)"/>
<path d="M0 0 C1.51953125 1.20703125 1.51953125 1.20703125 3 3 C3.07421875 5.26171875 3.07421875 5.26171875 2.6875 7.6875 C2.50767578 8.89986328 2.50767578 8.89986328 2.32421875 10.13671875 C2.21722656 10.75160156 2.11023437 11.36648437 2 12 C1.01 12 0.02 12 -1 12 C-1.33 12.66 -1.66 13.32 -2 14 C-2.66 13.67 -3.32 13.34 -4 13 C-3.34 11.35 -2.68 9.7 -2 8 C-1.01 8 -0.02 8 1 8 C0.67 5.36 0.34 2.72 0 0 Z " fill="#836F19" transform="translate(35,96)"/>
<path d="M0 0 C1.27101882 3.77511559 0.92892657 7.19038301 0.625 11.125 C0.53476562 12.36507812 0.44453125 13.60515625 0.3515625 14.8828125 C0 18 0 18 -1 20 C-1.66 20 -2.32 20 -3 20 C-2.69140975 17.22867983 -2.3782967 14.45800014 -2.0625 11.6875 C-1.97548828 10.90181641 -1.88847656 10.11613281 -1.79882812 9.30664062 C-1.71181641 8.54931641 -1.62480469 7.79199219 -1.53515625 7.01171875 C-1.41732788 5.96697388 -1.41732788 5.96697388 -1.29711914 4.90112305 C-1 3 -1 3 0 0 Z " fill="#F0C417" transform="translate(24,85)"/>
<path d="M0 0 C0 0.66 0 1.32 0 2 C0.66 2 1.32 2 2 2 C2 3.32 2 4.64 2 6 C-0.375 5.75 -0.375 5.75 -3 5 C-4.3125 2.9375 -4.3125 2.9375 -5 1 C-3 0 -3 0 0 0 Z " fill="#F8D216" transform="translate(31,63)"/>
<path d="M0 0 C0.66 0 1.32 0 2 0 C2.33 1.65 2.66 3.3 3 5 C2.01 5 1.02 5 0 5 C0 5.66 0 6.32 0 7 C-1.98 7.33 -3.96 7.66 -6 8 C-5.67 7.01 -5.34 6.02 -5 5 C-3.35 4.67 -1.7 4.34 0 4 C0 2.68 0 1.36 0 0 Z " fill="#D1AD1A" transform="translate(66,133)"/>
<path d="M0 0 C0.33 0 0.66 0 1 0 C1 3.3 1 6.6 1 10 C-0.65 10.33 -2.3 10.66 -4 11 C-3.5247412 9.35303396 -3.04468109 7.70745272 -2.5625 6.0625 C-2.29566406 5.14597656 -2.02882813 4.22945312 -1.75390625 3.28515625 C-1 1 -1 1 0 0 Z " fill="#C8AF2A" transform="translate(30,53)"/>
<path d="M0 0 C3.26954202 0.56371414 4.82575883 1.49962266 7 4 C6.67 4.99 6.34 5.98 6 7 C5.67 6.34 5.34 5.68 5 5 C3.02 5 1.04 5 -1 5 C-0.67 3.35 -0.34 1.7 0 0 Z " fill="#EABA0B" transform="translate(25,103)"/>
<path d="M0 0 C0.33 0.99 0.66 1.98 1 3 C0.67 3.66 0.34 4.32 0 5 C-1.98 5 -3.96 5 -6 5 C-6 4.01 -6 3.02 -6 2 C-2.25 0 -2.25 0 0 0 Z M-9 5 C-6 6 -6 6 -6 6 Z " fill="#D39D13" transform="translate(70,58)"/>
<path d="M0 0 C4.29 0 8.58 0 13 0 C13 1.32 13 2.64 13 4 C8.71 3.01 4.42 2.02 0 1 C0 0.67 0 0.34 0 0 Z " fill="#22232C" transform="translate(103,25)"/>
<path d="M0 0 C0 0.66 0 1.32 0 2 C-0.71027344 2.27714844 -1.42054687 2.55429687 -2.15234375 2.83984375 C-3.53099609 3.38318359 -3.53099609 3.38318359 -4.9375 3.9375 C-5.85402344 4.29714844 -6.77054688 4.65679688 -7.71484375 5.02734375 C-9.92418533 5.7996218 -9.92418533 5.7996218 -11 7 C-12.66617115 7.04063832 -14.33388095 7.042721 -16 7 C-13.10357159 4.64917788 -10.34643669 3.16480594 -6.875 1.8125 C-5.57175781 1.29623047 -5.57175781 1.29623047 -4.2421875 0.76953125 C-2 0 -2 0 0 0 Z " fill="#2B3D53" transform="translate(70,20)"/>
<path d="M0 0 C2.97 0.495 2.97 0.495 6 1 C6 1.66 6 2.32 6 3 C6.99 2.67 7.98 2.34 9 2 C8.67 3.65 8.34 5.3 8 7 C6.66382648 6.02471263 5.3311249 5.04466681 4 4.0625 C3.2575 3.51722656 2.515 2.97195312 1.75 2.41015625 C1.1725 1.94480469 0.595 1.47945312 0 1 C0 0.67 0 0.34 0 0 Z " fill="#C0A91D" transform="translate(60,157)"/>
<path d="M0 0 C2.475 0.495 2.475 0.495 5 1 C4.67 2.65 4.34 4.3 4 6 C4.66 5.67 5.32 5.34 6 5 C5.67 6.32 5.34 7.64 5 9 C4.01 9 3.02 9 2 9 C2.04125 8.2575 2.0825 7.515 2.125 6.75 C1.99601866 3.91241048 1.42948778 2.41226062 0 0 Z " fill="#B49D25" transform="translate(89,148)"/>
<path d="M0 0 C0 0.66 0 1.32 0 2 C-0.99 2 -1.98 2 -3 2 C-3.20625 2.639375 -3.4125 3.27875 -3.625 3.9375 C-5 6 -5 6 -8.125 6.75 C-9.548125 6.87375 -9.548125 6.87375 -11 7 C-4.48275862 0 -4.48275862 0 0 0 Z " fill="#B88C19" transform="translate(64,61)"/>
<path d="M0 0 C-1 3 -1 3 -2.6875 4.1875 C-5.54969093 5.19313465 -7.98827908 5.13689641 -11 5 C-9.70976282 2.41952564 -8.72910609 2.32977036 -6.0625 1.375 C-5.35222656 1.11460938 -4.64195313 0.85421875 -3.91015625 0.5859375 C-2 0 -2 0 0 0 Z " fill="#C79E21" transform="translate(81,53)"/>
<path d="M0 0 C1.98 0 3.96 0 6 0 C6 1.65 6 3.3 6 5 C6.66 5.33 7.32 5.66 8 6 C5 6 5 6 3.61328125 4.6875 C2.40885417 3.125 1.20442708 1.5625 0 0 Z " fill="#AE9B21" transform="translate(53,150)"/>
<path d="M0 0 C1.98 0.99 3.96 1.98 6 3 C6 3.99 6 4.98 6 6 C3.03 5.505 3.03 5.505 0 5 C0 3.35 0 1.7 0 0 Z " fill="#F2B104" transform="translate(26,66)"/>
<path d="M0 0 C-2.6598561 3.44216672 -5.90288286 3.99504674 -10 5 C-10.33 4.01 -10.66 3.02 -11 2 C-7.17679443 0.57741188 -4.08718695 -0.24042276 0 0 Z " fill="#16233E" transform="translate(141,32)"/>
<path d="M0 0 C0 0.66 0 1.32 0 2 C-2.64738916 3.4606285 -3.89448334 4 -7 4 C-6.67 5.65 -6.34 7.3 -6 9 C-6.99 8.34 -7.98 7.68 -9 7 C-8.875 5.1875 -8.875 5.1875 -8 3 C-2.96428571 0 -2.96428571 0 0 0 Z " fill="#A7992F" transform="translate(59,141)"/>
<path d="M0 0 C3.4375 0.8125 3.4375 0.8125 7 2 C7.33 2.99 7.66 3.98 8 5 C8.66 5.33 9.32 5.66 10 6 C9.01 6.495 9.01 6.495 8 7 C6.66382648 6.02471263 5.3311249 5.04466681 4 4.0625 C3.2575 3.51722656 2.515 2.97195312 1.75 2.41015625 C1.1725 1.94480469 0.595 1.47945313 0 1 C0 0.67 0 0.34 0 0 Z " fill="#AC9A2B" transform="translate(36,122)"/>
<path d="M0 0 C0.33 0 0.66 0 1 0 C1 3.63 1 7.26 1 11 C0.01 11 -0.98 11 -2 11 C-1 3.57142857 -1 3.57142857 0 0 Z " fill="#9E8A28" transform="translate(22,88)"/>
<path d="M0 0 C1.33309655 2.66619309 1.36660646 5.17944495 1.62109375 8.125 C1.86793777 10.23662643 1.86793777 10.23662643 4 12 C2.35 12 0.7 12 -1 12 C-1.02687279 10.18757948 -1.04633715 8.37504767 -1.0625 6.5625 C-1.07410156 5.55316406 -1.08570312 4.54382813 -1.09765625 3.50390625 C-1 1 -1 1 0 0 Z " fill="#CEB72E" transform="translate(33,68)"/>
<path d="M0 0 C0.33 0.99 0.66 1.98 1 3 C-1.57213134 4.61949011 -2.67669159 5.04408751 -5.75 4.625 C-6.4925 4.41875 -7.235 4.2125 -8 4 C-8 3.34 -8 2.68 -8 2 C-7.05125 2.04125 -6.1025 2.0825 -5.125 2.125 C-1.89755144 2.34973818 -1.89755144 2.34973818 0 0 Z " fill="#39373E" transform="translate(44,34)"/>
<path d="M0 0 C4.41889613 1.35021826 6.34345343 3.26115668 9 7 C8.01 7.495 8.01 7.495 7 8 C7 7.34 7 6.68 7 6 C5.68 5.34 4.36 4.68 3 4 C3 3.34 3 2.68 3 2 C1.68 1.67 0.36 1.34 -1 1 C-0.67 0.67 -0.34 0.34 0 0 Z " fill="#A89327" transform="translate(152,75)"/>
<path d="M0 0 C2.91227269 3.28804981 4.49701212 5.59885603 5 10 C3.0625 9.5 3.0625 9.5 1 8 C0.31209578 5.30341548 0.18053536 2.7982981 0 0 Z " fill="#B0A12A" transform="translate(161,82)"/>
<path d="M0 0 C0.33 0.99 0.66 1.98 1 3 C0.67 3.66 0.34 4.32 0 5 C-0.66 5 -1.32 5 -2 5 C-2.33 6.32 -2.66 7.64 -3 9 C-3.33 9 -3.66 9 -4 9 C-4 7.35 -4 5.7 -4 4 C-3.34 4 -2.68 4 -2 4 C-1.34 2.68 -0.68 1.36 0 0 Z " fill="#AD9A2A" transform="translate(102,132)"/>
<path d="M0 0 C2.475 0.495 2.475 0.495 5 1 C5 2.98 5 4.96 5 7 C3.29115995 5.37660195 1.62553283 3.70680947 0 2 C0 1.34 0 0.68 0 0 Z " fill="#9E9020" transform="translate(31,115)"/>
<path d="M0 0 C-3.51187196 2.40814077 -5.72656908 3.36629408 -10 3 C-9 1 -9 1 -6.6875 -0.1875 C-3.88010429 -1.03624754 -2.698065 -0.99928333 0 0 Z " fill="#A66C01" transform="translate(89,64)"/>
<path d="M0 0 C0 0.99 0 1.98 0 3 C-1.96466413 4.06775224 -3.96855359 5.06553465 -6 6 C-6.66 5.67 -7.32 5.34 -8 5 C-4.04 2.525 -4.04 2.525 0 0 Z " fill="#F1C211" transform="translate(76,71)"/>
<path d="M0 0 C2.64 0 5.28 0 8 0 C8 0.66 8 1.32 8 2 C5.69 2.66 3.38 3.32 1 4 C0.67 2.68 0.34 1.36 0 0 Z " fill="#202128" transform="translate(56,58)"/>
<path d="M0 0 C0.556875 0.226875 1.11375 0.45375 1.6875 0.6875 C-0.6225 2.0075 -2.9325 3.3275 -5.3125 4.6875 C-5.9725 4.0275 -6.6325 3.3675 -7.3125 2.6875 C-2.88173077 -0.38942308 -2.88173077 -0.38942308 0 0 Z " fill="#2B334D" transform="translate(52.3125,27.3125)"/>
<path d="M0 0 C2.875 0.25 2.875 0.25 6 1 C7.375 3.0625 7.375 3.0625 8 5 C4.62496331 3.8141763 2.35277269 2.72426311 0 0 Z " fill="#A09025" transform="translate(78,172)"/>
<path d="M0 0 C0.66 0.33 1.32 0.66 2 1 C1.67 2.65 1.34 4.3 1 6 C1.99 6.33 2.98 6.66 4 7 C3.01 7 2.02 7 1 7 C1 7.66 1 8.32 1 9 C0.34 9 -0.32 9 -1 9 C-0.67 6.03 -0.34 3.06 0 0 Z " fill="#E8BC15" transform="translate(90,151)"/>
<path d="M0 0 C0.33 0.66 0.66 1.32 1 2 C0.06553465 4.03144641 -0.93224776 6.03533587 -2 8 C-2.33 8 -2.66 8 -3 8 C-3 5.69 -3 3.38 -3 1 C-2.01 0.67 -1.02 0.34 0 0 Z " fill="#AC9C25" transform="translate(97,141)"/>
<path d="M0 0 C1.32 0 2.64 0 4 0 C3.25 4.75 3.25 4.75 1 7 C0.67 4.69 0.34 2.38 0 0 Z " fill="#C8AD22" transform="translate(104,124)"/>
<path d="M0 0 C2.64 0.33 5.28 0.66 8 1 C7.67 1.99 7.34 2.98 7 4 C4.08482708 2.92598892 2.22189824 2.22189824 0 0 Z " fill="#AA961F" transform="translate(41,101)"/>
<path d="M0 0 C0.66 0.33 1.32 0.66 2 1 C-2.625 5 -2.625 5 -6 5 C-6 4.34 -6 3.68 -6 3 C-4.03533587 1.93224776 -2.03144641 0.93446535 0 0 Z " fill="#243648" transform="translate(12,43)"/>
<path d="" fill="#000000" transform="translate(0,0)"/>
<path d="" fill="#000000" transform="translate(0,0)"/>
<path d="" fill="#000000" transform="translate(0,0)"/>
</svg>
